<?xml version="1.0" encoding="iso-8859-1"?>
<!-- Uploaded to: SVG Repo, www.svgrepo.com, Generator: SVG Repo Mixer Tools -->
<svg height="800px" width="800px" version="1.1" id="Layer_1" xmlns="http://www.w3.org/2000/svg" xmlns:xlink="http://www.w3.org/1999/xlink" 
	 viewBox="0 0 392.533 392.533" xml:space="preserve">
<g>
	<path style="fill:#FFFFFF;" d="M139.83,36.396c-2.198-6.788,1.875-14.739,10.149-14.61h92.509
		c8.663,0.517,11.895,7.24,10.279,14.61l-15.644,42.861c-12.929-7.046-26.57-11.119-40.857-11.119
		c-14.287,0-27.992,4.073-40.857,11.119L139.83,36.396z"/>
	<path style="fill:#FFFFFF;" d="M324.784,279.725c0,52.687-54.044,91.022-128.517,91.022S67.749,332.412,67.749,279.725
		c3.168-72.145,64.129-189.673,128.517-189.673C263.952,90.053,324.784,218.893,324.784,279.725z"/>
</g>
<path style="fill:#FFC10D;" d="M196.267,111.838c-12.606,0-25.729,7.37-38.4,19.135h22.174c6.012,0,10.925,4.848,10.925,10.925
	c0,6.012-4.848,10.925-10.925,10.925h-41.244c-4.913,6.659-9.632,13.834-14.158,21.333h11.378c6.012,0,10.925,4.848,10.925,10.925
	c0,6.012-4.848,10.925-10.925,10.925h-22.949C98.844,225.551,89.6,256.97,89.6,279.79c0,45.446,53.721,69.236,106.731,69.236
	s106.667-23.919,106.667-69.366C302.998,222.772,245.333,111.838,196.267,111.838z"/>
<g>
	<path style="fill:#194F82;" d="M269.964,104.921h65.422c6.012,0,10.925-4.848,10.925-10.925c0-6.012-4.848-10.925-10.925-10.925
		h-76.348l14.287-39.176C281.471,20.687,264.857,0.646,242.554,0H149.98c-21.851,0-38.465,20.493-30.772,43.895l17.455,47.968
		C81.907,136.404,45.964,232.21,45.964,279.661c0,65.422,63.224,112.873,150.303,112.873s150.303-47.45,150.303-112.873
		C346.57,236.477,316.703,153.083,269.964,104.921z M149.98,21.786h92.509c8.663,0.517,11.895,7.24,10.279,14.61l-15.644,42.861
		c-12.929-7.046-26.57-11.119-40.857-11.119c-14.287,0-27.992,4.073-40.857,11.119l-15.58-42.861
		C137.632,29.608,141.705,21.657,149.98,21.786z M196.267,370.747c-74.473,0-128.517-38.335-128.517-91.022
		c3.168-72.145,64.129-189.673,128.517-189.673c67.685,0,128.517,128.84,128.517,189.673
		C324.784,332.412,270.739,370.747,196.267,370.747z"/>
	<path style="fill:#194F82;" d="M196.267,205.511c9.891,0,17.842,8.016,17.842,17.842c0,6.012,4.848,10.925,10.925,10.925
		c6.012,0,10.925-4.848,10.925-10.925c0-18.101-12.218-33.358-28.832-38.077v-6.335c0-6.012-4.848-10.925-10.925-10.925
		c-6.012,0-10.925,4.848-10.925,10.925v6.335c-16.614,4.784-28.832,20.04-28.832,38.077c0,21.85,17.778,39.693,39.693,39.693
		c0.129,0,0.323,0,0.453,0c9.632,0.259,17.39,8.21,17.39,17.842c0,9.891-8.016,17.842-17.842,17.842
		c-9.891,0-17.842-8.016-17.842-17.842c0-6.012-4.848-10.925-10.925-10.925c-6.012,0-10.925,4.849-10.925,10.925
		c0,18.101,12.218,33.358,28.832,38.077v6.335c0,6.012,4.848,10.925,10.925,10.925c6.077,0,10.925-4.848,10.925-10.925v-6.335
		c16.614-4.784,28.832-20.04,28.832-38.077c0-21.85-17.778-39.693-39.693-39.693c-0.129,0-0.323,0-0.453,0
		c-9.632-0.259-17.39-8.21-17.39-17.842C178.424,213.527,186.376,205.511,196.267,205.511z"/>
</g>
</svg>