<?xml version="1.0" encoding="utf-8"?><!-- Uploaded to: SVG Repo, www.svgrepo.com, Generator: SVG Repo Mixer Tools -->
<svg fill="#000000" width="800px" height="800px" viewBox="0 0 24 24" id="cart-close" data-name="Flat Color" xmlns="http://www.w3.org/2000/svg" class="icon flat-color"><path id="secondary" d="M18.5,20.5A1.5,1.5,0,1,1,17,19,1.5,1.5,0,0,1,18.5,20.5ZM11,19a1.5,1.5,0,1,0,1.5,1.5A1.5,1.5,0,0,0,11,19ZM15.41,7l1.3-1.29a1,1,0,1,0-1.42-1.42L14,5.59l-1.29-1.3a1,1,0,0,0-1.42,1.42L12.59,7l-1.3,1.29a1,1,0,0,0,0,1.42,1,1,0,0,0,1.42,0L14,8.41l1.29,1.3a1,1,0,0,0,1.42,0,1,1,0,0,0,0-1.42Z" style="fill: rgb(44, 169, 188);"></path><path id="primary" d="M18.22,17H9.8a2,2,0,0,1-2-1.55L5.2,4H3A1,1,0,0,1,3,2H5.2a2,2,0,0,1,2,1.55L9.8,15h8.42L20,7.76A1,1,0,0,1,22,8.24l-1.81,7.25A2,2,0,0,1,18.22,17Z" style="fill: rgb(0, 0, 0);"></path></svg>