<?xml version="1.0" encoding="iso-8859-1"?>
<!-- Uploaded to: SVG Repo, www.svgrepo.com, Generator: SVG Repo Mixer Tools -->
<svg version="1.1" id="Layer_1" xmlns="http://www.w3.org/2000/svg" xmlns:xlink="http://www.w3.org/1999/xlink" 
	 viewBox="0 0 392.598 392.598" xml:space="preserve">
<path style="fill:#56ACE0;" d="M367.62,150.174l-19.265,19.265l-21.463-21.398l19.265-19.265c4.073-4.073,11.249-4.073,15.451,0
	l6.012,6.012C371.887,138.99,371.887,145.972,367.62,150.174z"/>
<path style="fill:#FFFFFF;" d="M242.141,66.586c0-6.012-4.848-10.925-10.925-10.925H32.752c-6.012,0-10.925,4.848-10.925,10.925
	v293.301c0,6.012,4.848,10.925,10.925,10.925h198.465c6.012,0,10.925-4.848,10.925-10.925"/>
<rect x="43.677" y="100.978" style="fill:#FFC10D;" width="176.614" height="248.048"/>
<g>
	<path style="fill:#194F82;" d="M194.626,148.17H69.341c-6.012,0-10.925-4.848-10.925-10.925c0-6.012,4.848-10.925,10.925-10.925
		h125.285c6.012,0,10.925,4.848,10.925,10.925C205.487,143.321,200.638,148.17,194.626,148.17z"/>
	<path style="fill:#194F82;" d="M194.626,207.257H69.341c-6.012,0-10.925-4.848-10.925-10.925s4.848-10.925,10.925-10.925h125.285
		c6.012,0,10.925,4.848,10.925,10.925C205.487,202.343,200.638,207.257,194.626,207.257z"/>
	<path style="fill:#194F82;" d="M383.006,119.337l-6.012-6.012c-6.206-6.206-14.352-9.568-23.079-9.568s-16.937,3.426-23.079,9.568
		l-66.909,66.844V66.586c0-18.036-14.675-32.711-32.711-32.711h-7.499V10.925C223.717,4.913,218.869,0,212.792,0
		c-6.012,0-10.925,4.848-10.925,10.925V33.81h-32.065V10.925C169.802,4.913,164.954,0,158.877,0
		c-6.012,0-10.925,4.848-10.925,10.925V33.81h-32.129V10.925C115.822,4.913,110.974,0,104.897,0C98.82,0,94.166,4.913,94.166,10.925
		V33.81H62.036V10.925C62.036,4.913,57.188,0,51.111,0S40.186,4.848,40.186,10.925V33.81h-7.434
		C14.715,33.875,0.04,48.485,0.04,66.586v293.301c0,18.036,14.675,32.711,32.711,32.711h198.465
		c18.036,0,32.711-14.675,32.711-32.711v-75.184l119.079-119.079C395.741,152.824,395.741,132.137,383.006,119.337z
		 M242.141,359.887c0,6.012-4.848,10.925-10.925,10.925H32.752c-6.012,0-10.925-4.848-10.925-10.925V66.586
		c0-6.012,4.848-10.925,10.925-10.925h7.499v22.885c0,6.012,4.848,10.925,10.925,10.925s10.925-4.848,10.925-10.925V55.661h32.065
		v22.885c0,6.012,4.848,10.925,10.925,10.925s10.925-4.848,10.925-10.925V55.661h32.065v22.885c0,6.012,4.848,10.925,10.925,10.925
		s10.925-4.848,10.925-10.925V55.661h32.065v22.885c0,6.012,4.848,10.925,10.925,10.925c6.012,0,10.925-4.848,10.925-10.925V55.661
		h7.499c6.012,0,10.925,4.848,10.925,10.925v135.37l-42.473,42.473H69.341c-6.012,0-10.925,4.848-10.925,10.925
		c0,6.012,4.848,10.925,10.925,10.925h108.477l-6.335,6.335c-1.616,1.616-2.715,3.814-3.103,6.077l-3.685,24.76H69.341
		c-6.012,0-10.925,4.848-10.925,10.925c0,6.012,4.848,10.925,10.925,10.925h92.574c0.323,2.327,1.293,4.461,3.038,6.206
		c3.168,2.715,6.335,3.685,9.374,3.103l43.378-6.594c2.327-0.323,4.396-1.422,6.077-3.103l18.36-18.36V359.887z M210.853,307.006
		l-25.277,3.814l3.814-25.277l122.117-122.117l21.398,21.398L210.853,307.006z M367.62,150.174l-19.265,19.265l-21.463-21.398
		l19.265-19.265c4.073-4.073,11.313-4.073,15.451,0l6.012,6.012C371.887,138.99,371.887,145.972,367.62,150.174z"/>
</g>
<polygon style="fill:#56ACE0;" points="332.905,184.824 311.507,163.426 189.325,285.479 185.576,310.756 210.853,307.006 "/>
</svg>