<svg xmlns="http://www.w3.org/2000/svg" viewBox="0 0 122.88 94.91"><path d="M54.58 74.69a1.43 1.43 0 110 2.86 1.43 1.43 0 010-2.86zm57.55-72.22c0 .04 9.28 31.27 10.33 33.73.29.47.43.96.43 1.45 0 3.36-4 3.5-6.3 3.5v51.92c0 1.02-.83 1.85-1.85 1.85H8.17c-1.02 0-1.85-.83-1.85-1.85V41.13C3.98 41.13 0 41 0 37.64c0-.49.13-.98.43-1.45L10.46 2.98C11.49 1.4 11.8 0 14.13 0h94.61c2.02 0 2.66 1.17 3.39 2.47zm.75 38.66H10.01v50.08h36.9V57.66c0-2.19.9-4.18 2.34-5.62 1.5-1.5 3.51-2.34 5.63-2.34h13.15c2.19 0 4.18.9 5.62 2.34a7.938 7.938 0 012.34 5.62v33.55h36.9V41.13h-.01zM68.01 53.4H54.87c-1.17 0-2.24.48-3.01 1.25-.77.77-1.25 1.84-1.25 3.01v33.55h21.67V57.66c0-1.17-.48-2.24-1.25-3.01a4.26 4.26 0 00-3.02-1.25zm17.21 2.39h13.17c1.02 0 1.85.83 1.85 1.85V77.2c0 1.02-.83 1.85-1.85 1.85H85.22c-1.02 0-1.85-.83-1.85-1.85V57.64c0-1.02.82-1.85 1.85-1.85zm11.31 3.7h-9.47v15.86h9.48l-.01-15.86zm-72.02-3.7h13.17c1.02 0 1.85.83 1.85 1.85V77.2c0 1.02-.83 1.85-1.85 1.85H24.51c-1.02 0-1.85-.83-1.85-1.85V57.64c0-1.02.82-1.85 1.85-1.85zm11.31 3.7h-9.47v15.86h9.48l-.01-15.86zM24.64 24.85l5.23-.33c.11.85.34 1.49.69 1.94.57.72 1.38 1.08 2.43 1.08.78 0 1.39-.18 1.81-.55.43-.37.64-.8.64-1.28 0-.46-.2-.88-.6-1.24s-1.34-.71-2.82-1.03c-2.42-.54-4.14-1.26-5.17-2.16-1.04-.9-1.56-2.04-1.56-3.44 0-.91.27-1.78.8-2.59.53-.82 1.33-1.46 2.4-1.92 1.07-.46 2.53-.7 4.38-.7 2.28 0 4.02.42 5.21 1.28 1.2.85 1.91 2.2 2.13 4.05l-5.18.31c-.14-.81-.43-1.4-.87-1.77-.44-.37-1.05-.55-1.83-.55-.64 0-1.13.14-1.45.41-.32.27-.49.6-.49.99 0 .28.13.54.39.76.25.24.87.45 1.84.66 2.41.52 4.13 1.05 5.17 1.58s1.8 1.19 2.28 1.98c.47.78.71 1.67.71 2.64 0 1.14-.32 2.2-.95 3.16-.64.96-1.52 1.7-2.65 2.2-1.13.5-2.56.75-4.29.75-3.03 0-5.13-.59-6.3-1.75-1.14-1.2-1.8-2.69-1.95-4.48zm18.33-11.94h5.51v6.23h6.03v-6.23h5.53v17.84H54.5v-7.23h-6.03v7.23h-5.51V12.91h.01zm19.39 8.93c0-2.91.81-5.18 2.43-6.8s3.88-2.43 6.78-2.43c2.97 0 5.26.8 6.86 2.39 1.61 1.59 2.41 3.83 2.41 6.7 0 2.09-.35 3.79-1.05 5.13s-1.72 2.37-3.04 3.11c-1.33.74-2.98 1.11-4.96 1.11-2.01 0-3.68-.32-5-.96-1.32-.64-2.39-1.66-3.21-3.04-.81-1.39-1.22-3.13-1.22-5.21zm5.51.01c0 1.8.34 3.1 1.01 3.88.67.78 1.59 1.18 2.74 1.18 1.18 0 2.11-.39 2.75-1.15.65-.77.98-2.15.98-4.15 0-1.68-.34-2.9-1.02-3.67-.68-.78-1.6-1.16-2.76-1.16-1.11 0-2.01.4-2.68 1.18-.68.77-1.02 2.08-1.02 3.89zm15.28-8.94h9.17c2 0 3.5.48 4.49 1.43.99.95 1.49 2.3 1.49 4.06 0 1.8-.55 3.21-1.63 4.23-1.08 1.01-2.75 1.52-4.97 1.52h-3.02v6.6h-5.53V12.91zm5.53 7.62h1.36c1.07 0 1.83-.19 2.25-.56.43-.37.65-.84.65-1.42 0-.56-.19-1.03-.56-1.42-.37-.39-1.08-.58-2.12-.58h-1.58v3.98z" fill-rule="evenodd" clip-rule="evenodd"/></svg>